<svg xmlns="http://www.w3.org/2000/svg" viewBox="0 0 400 260" fill="none">
<rect width="400" height="260" rx="24" fill="#20162c"/>
<rect x="18" y="18" width="364" height="224" rx="18" fill="#efe0bd" fill-opacity=".08" stroke="#f4d58a" stroke-opacity=".18"/>
<path d="M48 194c41-66 98-125 177-146 40-11 85-4 123 23-59 2-98 30-130 62 26 10 50 27 66 54-55-14-114 0-163 40l-73-33z" fill="#f0d3a0" opacity=".72"/>
<path d="M82 90l18 20 34-12 21 28 40-8 26 20 37-11" stroke="#6e4624" stroke-width="5" stroke-linecap="round" stroke-dasharray="10 12"/>
<circle cx="83" cy="89" r="10" fill="#6e4624"/><circle cx="134" cy="98" r="10" fill="#6e4624"/><circle cx="194" cy="118" r="10" fill="#6e4624"/><circle cx="257" cy="138" r="10" fill="#6e4624"/><path d="M309 79l17 30 34 5-25 22 7 33-33-18-32 18 6-33-24-22 34-5z" fill="#f4d58a"/>
</svg>