<svg xmlns="http://www.w3.org/2000/svg" viewBox="0 0 640 420" fill="none">
<defs>
<linearGradient id="sky" x1="0" x2="1" y1="0" y2="1"><stop stop-color="#2d1f4a"/><stop offset="1" stop-color="#130f1f"/></linearGradient>
<linearGradient id="gold" x1="0" x2="1"><stop stop-color="#f5d58b"/><stop offset="1" stop-color="#8b4f1f"/></linearGradient>
</defs>
<rect width="640" height="420" rx="28" fill="url(#sky)"/>
<circle cx="486" cy="86" r="44" fill="#f0d9a2" opacity=".18"/>
<path d="M34 326c70-17 130-88 191-88 43 0 73 32 110 32 42 0 61-43 119-43 59 0 78 50 152 62v101H34z" fill="#261c38"/>
<path d="M106 300c51-92 143-163 246-185 39-8 65-6 98 7-36 3-55 14-74 30 19 1 34 8 46 20-30 2-61 15-84 36 32 3 57 19 74 47-41-16-70-14-97-5-56 20-90 71-152 80-33 5-46-6-57-30z" fill="url(#gold)" opacity=".85"/>
<path d="M346 93c22 5 43 18 53 35-18-4-29 2-36 12-13-2-23 1-32 10 0-18 6-39 15-57z" fill="#fff1c7" opacity=".76"/>
<path d="M272 211c48-24 102-24 151 2-35 0-58 17-81 39-26-26-44-33-70-41z" fill="#f8e5b2" opacity=".78"/>
<path d="M402 158c31-2 55 10 73 33-21-5-39-2-54 8-7-15-13-29-19-41z" fill="#f5deb1" opacity=".7"/>
<path d="M140 324c26-50 87-79 136-65-42 9-67 39-93 77l-43-12z" fill="#f3d48b" opacity=".65"/>
<rect x="32" y="32" width="576" height="356" rx="24" stroke="#f3d48b" stroke-opacity=".18" stroke-width="3"/>
</svg>